<svg xmlns="http://www.w3.org/2000/svg" xml:space="preserve" width="288.695" height="75.089" viewBox="0 0 76.384 19.867"><defs><clipPath id="e" clipPathUnits="userSpaceOnUse"><path d="M276.656 75.568h1.333v9.297h-1.333Z"/></clipPath><clipPath id="f" clipPathUnits="userSpaceOnUse"><path d="M277.99 75.568h6.666v9.297h-6.667z"/></clipPath><clipPath id="g" clipPathUnits="userSpaceOnUse"><path d="M284.656 79.568h17.333v5.297h-17.333Z"/></clipPath><clipPath id="h" clipPathUnits="userSpaceOnUse"><path d="M301.99 75.568h4v9.297h-4z"/></clipPath><clipPath id="i" clipPathUnits="userSpaceOnUse"><path d="M276.656 15.401h1.333V24.7h-1.333Z"/></clipPath><clipPath id="j" clipPathUnits="userSpaceOnUse"><path d="M277.99 15.401h6.666V24.7h-6.667z"/></clipPath><clipPath id="k" clipPathUnits="userSpaceOnUse"><path d="M284.656 18.068h4v6.63h-4z"/></clipPath><clipPath id="l" clipPathUnits="userSpaceOnUse"><path d="M289.99 15.401h4V24.7h-4z"/></clipPath><clipPath id="m" clipPathUnits="userSpaceOnUse"><path d="M276.656 30.443h1.333v9.297h-1.333Z"/></clipPath><clipPath id="n" clipPathUnits="userSpaceOnUse"><path d="M277.99 30.443h6.666v9.297h-6.667z"/></clipPath><clipPath id="o" clipPathUnits="userSpaceOnUse"><path d="M284.656 33.11h5.333v6.63h-5.333Z"/></clipPath><clipPath id="p" clipPathUnits="userSpaceOnUse"><path d="M289.99 30.443h4v9.297h-4z"/></clipPath><clipPath id="q" clipPathUnits="userSpaceOnUse"><path d="M276.656 45.484h1.333v9.297h-1.333Z"/></clipPath><clipPath id="r" clipPathUnits="userSpaceOnUse"><path d="M277.99 45.484h6.666v9.297h-6.667z"/></clipPath><clipPath id="s" clipPathUnits="userSpaceOnUse"><path d="M284.656 48.15h5.333v6.631h-5.333Z"/></clipPath><clipPath id="t" clipPathUnits="userSpaceOnUse"><path d="M289.99 45.484h4v9.297h-4z"/></clipPath><clipPath id="v" clipPathUnits="userSpaceOnUse"><path d="M258.745 68.677h2.667v2.334h-2.667z"/></clipPath><clipPath id="x" clipPathUnits="userSpaceOnUse"><path d="M115.875 75.47h1.333v9.297h-1.333z"/></clipPath><clipPath id="y" clipPathUnits="userSpaceOnUse"><path d="M123.875 79.47h17.333v5.297h-17.333z"/></clipPath><clipPath id="z" clipPathUnits="userSpaceOnUse"><path d="M141.208 75.47h4v9.297h-4z"/></clipPath><clipPath id="A" clipPathUnits="userSpaceOnUse"><path d="M115.875 45.375h1.333v9.297h-1.333z"/></clipPath><clipPath id="B" clipPathUnits="userSpaceOnUse"><path d="M123.875 48.041h4v6.631h-4z"/></clipPath><clipPath id="C" clipPathUnits="userSpaceOnUse"><path d="M129.208 45.375h3.995v9.297h-3.995Z"/></clipPath><clipPath id="D" clipPathUnits="userSpaceOnUse"><path d="M115.875 30.328h1.333v9.297h-1.333z"/></clipPath><clipPath id="E" clipPathUnits="userSpaceOnUse"><path d="M123.875 32.995h4v6.63h-4z"/></clipPath><clipPath id="F" clipPathUnits="userSpaceOnUse"><path d="M129.208 30.328h3.995v9.297h-3.995Z"/></clipPath><clipPath id="G" clipPathUnits="userSpaceOnUse"><path d="M115.875 15.281h1.333v9.298h-1.333z"/></clipPath><clipPath id="H" clipPathUnits="userSpaceOnUse"><path d="M123.875 17.948h4v6.63h-4z"/></clipPath><clipPath id="I" clipPathUnits="userSpaceOnUse"><path d="M129.208 15.281h3.995v9.298h-3.995Z"/></clipPath><clipPath id="N" clipPathUnits="userSpaceOnUse"><path d="M97.984 68.547h2.667v2.333h-2.667Z"/></clipPath><linearGradient id="a" x1="47.583" x2="51.556" y1="74.065" y2="74.065" gradientTransform="matrix(1.68569 0 0 2.84044 112.125 -195.385)" gradientUnits="userSpaceOnUse" spreadMethod="pad"><stop offset="0" style="stop-opacity:.6;stop-color:#1f77b4"/><stop offset="1" style="stop-opacity:.29999237;stop-color:#1f77b4"/></linearGradient><linearGradient id="b" x1="47.583" x2="51.556" y1="78.045" y2="78.045" gradientTransform="matrix(1.68569 0 0 2.84044 112.125 -195.385)" gradientUnits="userSpaceOnUse" spreadMethod="pad"><stop offset="0" style="stop-opacity:.6;stop-color:#1f77b4"/><stop offset="1" style="stop-opacity:.29999237;stop-color:#1f77b4"/></linearGradient><linearGradient id="c" x1="47.583" x2="51.556" y1="82.025" y2="82.025" gradientTransform="matrix(1.68569 0 0 2.84044 112.125 -195.385)" gradientUnits="userSpaceOnUse" spreadMethod="pad"><stop offset="0" style="stop-opacity:.6;stop-color:#1f77b4"/><stop offset="1" style="stop-opacity:.29999237;stop-color:#1f77b4"/></linearGradient><linearGradient id="d" x1="47.583" x2="51.556" y1="89.985" y2="89.985" gradientTransform="matrix(1.68569 0 0 2.84044 112.125 -195.385)" gradientUnits="userSpaceOnUse" spreadMethod="pad"><stop offset="0" style="stop-opacity:.6;stop-color:#1f77b4"/><stop offset="1" style="stop-opacity:.29999237;stop-color:#1f77b4"/></linearGradient><linearGradient id="u" x1="24.487" x2="35.487" y1="59.033" y2="59.033" gradientTransform="matrix(2.83195 0 0 3.19197 63.58 -150.785)" gradientUnits="userSpaceOnUse" spreadMethod="pad"><stop offset="0" style="stop-opacity:.6;stop-color:#1f77b4"/><stop offset="1" style="stop-opacity:.29999237;stop-color:#1f77b4"/></linearGradient><linearGradient id="w" x1="24.487" x2="35.487" y1="59.033" y2="59.033" gradientTransform="matrix(2.83195 0 0 3.19197 -57.037 -150.83)" gradientUnits="userSpaceOnUse" spreadMethod="pad"><stop offset="0" style="stop-opacity:.6;stop-color:#2ca02c"/><stop offset="1" style="stop-opacity:.30196078;stop-color:#2ca02c"/></linearGradient><linearGradient id="J" x1="87.667" x2="91.64" y1="54.289" y2="54.289" gradientTransform="matrix(1.68569 0 0 2.84044 -76.013 -139.304)" gradientUnits="userSpaceOnUse" spreadMethod="pad"><stop offset="0" style="stop-opacity:.6;stop-color:#2ca02c"/><stop offset="1" style="stop-opacity:.30196078;stop-color:#2ca02c"/></linearGradient><linearGradient id="K" x1="87.667" x2="91.64" y1="58.269" y2="58.269" gradientTransform="matrix(1.68569 0 0 2.84044 -76.013 -139.304)" gradientUnits="userSpaceOnUse" spreadMethod="pad"><stop offset="0" style="stop-opacity:.6;stop-color:#2ca02c"/><stop offset="1" style="stop-opacity:.30196078;stop-color:#2ca02c"/></linearGradient><linearGradient id="L" x1="87.667" x2="91.64" y1="62.249" y2="62.249" gradientTransform="matrix(1.68569 0 0 2.84044 -76.013 -139.304)" gradientUnits="userSpaceOnUse" spreadMethod="pad"><stop offset="0" style="stop-opacity:.6;stop-color:#2ca02c"/><stop offset="1" style="stop-opacity:.30196078;stop-color:#2ca02c"/></linearGradient><linearGradient id="M" x1="87.667" x2="91.64" y1="70.209" y2="70.209" gradientTransform="matrix(1.68569 0 0 2.84044 -76.013 -139.304)" gradientUnits="userSpaceOnUse" spreadMethod="pad"><stop offset="0" style="stop-opacity:.6;stop-color:#2ca02c"/><stop offset="1" style="stop-opacity:.30196078;stop-color:#2ca02c"/></linearGradient></defs><path d="M-198.793 15.039h-7.922M-198.793 60.168h-7.922M-198.793 37.602h-7.922M-198.793 26.32h-7.922" style="fill:none;stroke:#000;stroke-width:.5;stroke-linecap:butt;stroke-linejoin:bevel;stroke-miterlimit:1;stroke-dasharray:none;stroke-opacity:1" transform="matrix(-.35278 0 0 .35278 -4.337 -3.315)"/><path d="M192.484 9.738c3.536 0 6.399 2.352 6.399 5.254 0 2.899-2.863 5.25-6.399 5.25z" style="fill:url(#a);fill-rule:evenodd;stroke:#000;stroke-width:.5;stroke-linecap:butt;stroke-linejoin:bevel;stroke-miterlimit:1;stroke-dasharray:none;stroke-opacity:1" transform="translate(-4.337 -3.315)scale(.35278)"/><path d="M192.484 21.043c3.536 0 6.399 2.352 6.399 5.254s-2.863 5.254-6.399 5.254z" style="fill:url(#b);fill-rule:evenodd;stroke:#000;stroke-width:.5;stroke-linecap:butt;stroke-linejoin:bevel;stroke-miterlimit:1;stroke-dasharray:none;stroke-opacity:1" transform="translate(-4.337 -3.315)scale(.35278)"/><path d="M192.484 32.352c3.536 0 6.399 2.351 6.399 5.25 0 2.902-2.863 5.253-6.399 5.253z" style="fill:url(#c);fill-rule:evenodd;stroke:#000;stroke-width:.5;stroke-linecap:butt;stroke-linejoin:bevel;stroke-miterlimit:1;stroke-dasharray:none;stroke-opacity:1" transform="translate(-4.337 -3.315)scale(.35278)"/><path d="M192.484 54.961c3.536 0 6.399 2.352 6.399 5.25 0 2.902-2.863 5.254-6.399 5.254z" style="fill:url(#d);fill-rule:evenodd;stroke:#000;stroke-width:.5;stroke-linecap:butt;stroke-linejoin:bevel;stroke-miterlimit:1;stroke-dasharray:none;stroke-opacity:1" transform="translate(-4.337 -3.315)scale(.35278)"/><g clip-path="url(#e)" transform="translate(-4.337 -3.315)scale(.26458)"><path d="M207.852 56.957c0-.109 0-.266-.172-.266s-.172.157-.172.266v6.422c0 .109 0 .266.156.266.188 0 .188-.157.188-.266z" style="fill:#000;fill-opacity:1;fill-rule:nonzero;stroke:none" transform="scale(1.33333)"/></g><g clip-path="url(#f)" transform="translate(-4.337 -3.315)scale(.26458)"><path d="M212.281 57.16c0-.094-.078-.094-.109-.094-.109 0-.109.047-.141.157l-.39 1.593c-1.235.063-2.297.954-2.297 1.875 0 .797.719 1.266 1.5 1.297-.063.219-.11.438-.172.657-.078.328-.141.578-.141.609 0 .078.094.078.11.078.109 0 .109-.016.156-.172l.281-1.172c1.203-.047 2.297-.922 2.297-1.875 0-.718-.641-1.25-1.5-1.281zm-1.39 4.625c-.547-.015-1.032-.312-1.032-.969 0-.703.532-1.687 1.719-1.796zm.937-2.765c.531.031 1.031.312 1.031.984 0 .75-.593 1.687-1.734 1.781z" style="fill:#000;fill-opacity:1;fill-rule:nonzero;stroke:none" transform="scale(1.33333)"/></g><g clip-path="url(#g)" transform="translate(-4.337 -3.315)scale(.26458)"><path d="M218.367 61.406c0-.625-.469-.703-.828-.703-.5 0-.781.25-.922.469-.125-.469-.625-.469-.812-.469-.516 0-.813.281-.938.485v-.485l-.812.063v.218c.375 0 .422.032.422.266v1.234c0 .157 0 .204-.329.204h-.093v.218c.218-.015.422-.015.64-.015.203 0 .422 0 .641.015v-.218h-.094c-.328 0-.328-.047-.328-.204v-.859c0-.562.516-.75.828-.75.375 0 .453.203.453.516v1.093c0 .157 0 .204-.312.204h-.094v.218c.219-.015.422-.015.641-.015.203 0 .422 0 .625.015v-.218h-.094c-.313 0-.313-.047-.313-.204v-.859c0-.562.5-.75.829-.75.359 0 .453.203.453.516v1.093c0 .157 0 .204-.328.204h-.079v.218c.204-.015.422-.015.625-.015.219 0 .422 0 .641.015v-.218h-.094c-.328 0-.328-.047-.328-.204zM221.723 61.422c0-.469-.5-.75-1.125-.75-.297 0-.875.016-.875.437 0 .188.14.266.265.266s.25-.094.25-.266a.27.27 0 0 0-.109-.218c.172-.047.406-.047.453-.047.438 0 .688.234.688.594v.125c-.469.015-.75.031-1.125.171-.329.11-.625.329-.625.657 0 .453.578.578.984.578.375 0 .672-.156.828-.422.031.187.141.391.391.391.031 0 .609 0 .609-.485v-.265h-.219v.265c0 .047 0 .266-.187.266-.203 0-.203-.219-.203-.266zm-.453.781c0 .547-.594.594-.719.594-.297 0-.563-.156-.563-.406 0-.172.094-.625 1.282-.688zM225.691 60.766c-.14 0-.281.015-.468.015-.172 0-.375-.015-.563-.015v.218c.094 0 .11.079.11.094 0 .078-.063.141-.204.266l-.25.25c-.218-.219-.484-.485-.484-.531 0-.079.109-.079.125-.079v-.218c-.203 0-.578.015-.609.015-.203 0-.344 0-.547-.015v.218h.094c.312 0 .312 0 .578.266l.593.594-.546.547c-.141.125-.329.297-.75.297v.218c.14-.015.281-.015.468-.015.172 0 .375 0 .563.015v-.218c-.078-.016-.094-.063-.094-.094 0-.094.063-.156.094-.188l.406-.406.516.516c.047.062.047.062.047.078 0 .094-.11.094-.125.094v.218c.203-.015.578-.015.609-.015.203 0 .344 0 .547.015v-.218h-.094c-.266 0-.328-.047-.375-.079-.062-.031-.641-.64-.859-.859.609-.641.75-.766 1.218-.766z" style="fill:#000;fill-opacity:1;fill-rule:nonzero;stroke:none" transform="scale(1.33333)"/></g><g clip-path="url(#h)" transform="translate(-4.337 -3.315)scale(.26458)"><path d="M228.77 60.301c.046-.094.046-.11.046-.125 0-.047 0-.047-.046-.141l-1.297-3.172c-.047-.109-.094-.172-.203-.172a.173.173 0 0 0-.172.172c0 .016 0 .032.047.125l1.312 3.172-1.312 3.172c-.047.109-.047.125-.047.141 0 .109.093.172.172.172.125 0 .14-.079.187-.172z" style="fill:#000;fill-opacity:1;fill-rule:nonzero;stroke:none" transform="scale(1.33333)"/></g><g clip-path="url(#i)" transform="translate(-4.337 -3.315)scale(.26458)"><path d="M207.852 11.828c0-.109 0-.265-.172-.265s-.172.156-.172.265v6.422c0 .109 0 .266.156.266.188 0 .188-.157.188-.266z" style="fill:#000;fill-opacity:1;fill-rule:nonzero;stroke:none" transform="scale(1.33333)"/></g><g clip-path="url(#j)" transform="translate(-4.337 -3.315)scale(.26458)"><path d="M212.281 12.031c0-.093-.078-.093-.109-.093-.109 0-.109.046-.141.156l-.39 1.594c-1.235.062-2.297.953-2.297 1.875 0 .796.719 1.265 1.5 1.296-.063.219-.11.438-.172.657-.078.328-.141.578-.141.609 0 .078.094.078.11.078.109 0 .109-.015.156-.172l.281-1.172c1.203-.046 2.297-.921 2.297-1.875 0-.718-.641-1.25-1.5-1.281zm-1.39 4.625c-.547-.015-1.032-.312-1.032-.968 0-.704.532-1.688 1.719-1.797zm.937-2.765c.531.031 1.031.312 1.031.984 0 .75-.593 1.688-1.734 1.781z" style="fill:#000;fill-opacity:1;fill-rule:nonzero;stroke:none" transform="scale(1.33333)"/></g><g clip-path="url(#k)" transform="translate(-4.337 -3.315)scale(.26458)"><path d="M215.633 14.605c0-.14-.016-.14-.188-.14-.343.312-.906.312-1 .312h-.078v.219h.078c.11 0 .438-.016.735-.141v2.5c0 .141 0 .204-.532.204h-.25v.218c.266-.015.719-.015 1-.015.297 0 .735 0 1.016.015v-.218h-.25c-.531 0-.531-.063-.531-.204z" style="fill:#000;fill-opacity:1;fill-rule:nonzero;stroke:none" transform="scale(1.33333)"/></g><g clip-path="url(#l)" transform="translate(-4.337 -3.315)scale(.26458)"><path d="M219.742 15.172c.047-.094.047-.109.047-.125 0-.047 0-.047-.047-.141l-1.297-3.172c-.047-.109-.093-.171-.203-.171a.173.173 0 0 0-.172.171c0 .016 0 .032.047.125l1.313 3.172-1.313 3.172c-.047.11-.047.125-.047.141 0 .109.094.172.172.172.125 0 .141-.078.188-.172z" style="fill:#000;fill-opacity:1;fill-rule:nonzero;stroke:none" transform="scale(1.33333)"/></g><g clip-path="url(#m)" transform="translate(-4.337 -3.315)scale(.26458)"><path d="M207.852 23.109c0-.109 0-.265-.172-.265s-.172.156-.172.265v6.422c0 .11 0 .266.156.266.188 0 .188-.156.188-.266z" style="fill:#000;fill-opacity:1;fill-rule:nonzero;stroke:none" transform="scale(1.33333)"/></g><g clip-path="url(#n)" transform="translate(-4.337 -3.315)scale(.26458)"><path d="M212.281 23.313c0-.094-.078-.094-.109-.094-.109 0-.109.047-.141.156l-.39 1.594c-1.235.062-2.297.953-2.297 1.875 0 .797.719 1.265 1.5 1.297-.063.218-.11.437-.172.656-.078.328-.141.578-.141.609 0 .078.094.078.11.078.109 0 .109-.015.156-.171l.281-1.172c1.203-.047 2.297-.922 2.297-1.875 0-.719-.641-1.25-1.5-1.282zm-1.39 4.625c-.547-.016-1.032-.313-1.032-.969 0-.703.532-1.688 1.719-1.797zm.937-2.766c.531.031 1.031.312 1.031.984 0 .75-.593 1.688-1.734 1.782z" style="fill:#000;fill-opacity:1;fill-rule:nonzero;stroke:none" transform="scale(1.33333)"/></g><g clip-path="url(#o)" transform="translate(-4.337 -3.315)scale(.26458)"><path d="M216.586 28.09h-.219c0 .094-.062.406-.14.453-.032.031-.454.031-.532.031h-.968c.328-.234.687-.515.984-.719.453-.312.875-.593.875-1.125 0-.64-.609-.984-1.313-.984-.671 0-1.171.375-1.171.875 0 .25.218.297.296.297a.284.284 0 0 0 .282-.297.27.27 0 0 0-.282-.281c.141-.235.438-.375.766-.375.484 0 .891.281.891.765 0 .422-.297.75-.672 1.063l-1.219 1.031c-.047.047-.062.047-.062.078v.157h2.312z" style="fill:#000;fill-opacity:1;fill-rule:nonzero;stroke:none" transform="scale(1.33333)"/></g><g clip-path="url(#p)" transform="translate(-4.337 -3.315)scale(.26458)"><path d="M219.742 26.453c.047-.094.047-.109.047-.125 0-.047 0-.047-.047-.14l-1.297-3.172c-.047-.11-.093-.172-.203-.172a.173.173 0 0 0-.172.172c0 .015 0 .031.047.125l1.313 3.172-1.313 3.171c-.047.11-.047.125-.047.141 0 .109.094.172.172.172.125 0 .141-.078.188-.172z" style="fill:#000;fill-opacity:1;fill-rule:nonzero;stroke:none" transform="scale(1.33333)"/></g><g clip-path="url(#q)" transform="translate(-4.337 -3.315)scale(.26458)"><path d="M207.852 34.391c0-.11 0-.266-.172-.266s-.172.156-.172.266v6.422c0 .109 0 .265.156.265.188 0 .188-.156.188-.265z" style="fill:#000;fill-opacity:1;fill-rule:nonzero;stroke:none" transform="scale(1.33333)"/></g><g clip-path="url(#r)" transform="translate(-4.337 -3.315)scale(.26458)"><path d="M212.281 34.594c0-.094-.078-.094-.109-.094-.109 0-.109.047-.141.156l-.39 1.594c-1.235.063-2.297.953-2.297 1.875 0 .797.719 1.266 1.5 1.297-.063.219-.11.437-.172.656-.078.328-.141.578-.141.61 0 .078.094.078.11.078.109 0 .109-.016.156-.172l.281-1.172c1.203-.047 2.297-.922 2.297-1.875 0-.719-.641-1.25-1.5-1.281zm-1.39 4.625c-.547-.016-1.032-.313-1.032-.969 0-.703.532-1.687 1.719-1.797zm.937-2.766c.531.031 1.031.313 1.031.985 0 .75-.593 1.687-1.734 1.781z" style="fill:#000;fill-opacity:1;fill-rule:nonzero;stroke:none" transform="scale(1.33333)"/></g><g clip-path="url(#s)" transform="translate(-4.337 -3.315)scale(.26458)"><path d="M215.289 38.684c.469 0 .766.296.766.781 0 .515-.313.781-.75.781-.063 0-.657 0-.907-.266.204-.031.266-.171.266-.296a.304.304 0 0 0-.312-.313c-.157 0-.297.109-.297.328 0 .516.578.75 1.265.75.813 0 1.313-.5 1.313-.984 0-.406-.36-.75-.922-.875.594-.203.75-.578.75-.86 0-.406-.5-.703-1.125-.703s-1.109.25-1.109.703a.28.28 0 0 0 .281.297c.14 0 .281-.109.281-.297a.28.28 0 0 0-.234-.281c.203-.219.656-.234.765-.234.36 0 .61.172.61.515 0 .297-.188.75-.703.782-.141 0-.157 0-.297.015-.047 0-.11 0-.11.078 0 .079.047.079.141.079z" style="fill:#000;fill-opacity:1;fill-rule:nonzero;stroke:none" transform="scale(1.33333)"/></g><g clip-path="url(#t)" transform="translate(-4.337 -3.315)scale(.26458)"><path d="M219.742 37.734c.047-.093.047-.109.047-.125 0-.046 0-.046-.047-.14l-1.297-3.172c-.047-.109-.093-.172-.203-.172a.173.173 0 0 0-.172.172c0 .016 0 .031.047.125l1.313 3.172-1.313 3.172c-.047.109-.047.125-.047.14 0 .11.094.172.172.172.125 0 .141-.078.188-.172z" style="fill:#000;fill-opacity:1;fill-rule:nonzero;stroke:none" transform="scale(1.33333)"/></g><path d="m-164.059 37.637-28.554-.043" style="fill:none;stroke:#000;stroke-width:.5;stroke-linecap:butt;stroke-linejoin:bevel;stroke-miterlimit:1;stroke-dasharray:none;stroke-opacity:1" transform="matrix(-.35278 0 0 .35278 -4.337 -3.315)"/><path d="M-164.059 34.156c-19.285.145-10.199-19.191-28.48-19.035" style="fill:none;stroke:#000;stroke-width:.5;stroke-linecap:butt;stroke-linejoin:round;stroke-miterlimit:100;stroke-dasharray:none;stroke-opacity:1" transform="matrix(-.35278 0 0 .35278 -4.337 -3.315)"/><path d="M-164.059 35.898c-19.293.079-10.14-9.656-28.429-9.566M-164.059 41.117c-19.285-.144-10.257 19.196-28.539 19.035" style="fill:none;stroke:#000;stroke-width:.5;stroke-linecap:butt;stroke-linejoin:round;stroke-miterlimit:100;stroke-dasharray:none;stroke-opacity:1" transform="matrix(-.35278 0 0 .35278 -4.337 -3.315)"/><path d="M136.801 28.273h23.402a3.62 3.62 0 0 1 3.625 3.625v11.493a3.62 3.62 0 0 1-3.625 3.625h-23.402a3.62 3.62 0 0 1-3.625-3.625V31.898a3.62 3.62 0 0 1 3.625-3.625z" style="fill:url(#u);fill-rule:evenodd;stroke:#000;stroke-width:.529157;stroke-linecap:butt;stroke-linejoin:bevel;stroke-miterlimit:1;stroke-dasharray:none;stroke-opacity:1" transform="translate(-4.337 -3.315)scale(.35278)"/><path d="M3.492-1.3c0-.703-.457-1.277-1.055-1.418l-.89-.211a.91.91 0 0 1-.704-.89.9.9 0 0 1 .915-.915c1.171 0 1.324 1.149 1.37 1.465 0 .035 0 .082.083.082.093 0 .093-.035.093-.176v-1.406c0-.117 0-.164-.082-.164-.046 0-.058.012-.105.094l-.246.398c-.211-.199-.492-.492-1.113-.492-.774 0-1.372.621-1.372 1.36 0 .574.375 1.09.926 1.277.07.035.434.117.914.234.2.047.399.094.598.352.152.187.223.422.223.644 0 .504-.352 1.008-.938 1.008-.21 0-.738-.035-1.113-.387C.597-.82.574-1.265.562-1.523c0-.07-.058-.07-.082-.07-.094 0-.094.059-.094.176v1.406c0 .117 0 .164.082.164.047 0 .06-.012.106-.094 0 0 .023-.023.246-.398.223.246.668.492 1.29.492.82 0 1.382-.68 1.382-1.453m4.772-2.18c0-.68-.703-1.3-1.652-1.3H4.139v.222h.164c.54 0 .551.07.551.328v3.68c0 .258-.011.328-.55.328h-.165v.223c.246-.024.762-.024 1.032-.024.257 0 .785 0 1.03.024v-.223h-.163c-.54 0-.551-.07-.551-.328v-1.664h1.172c.844 0 1.605-.563 1.605-1.266m-.726 0c0 .328 0 1.09-1.113 1.09h-.961v-1.887c0-.234.011-.28.34-.28h.62c1.114 0 1.114.737 1.114 1.077M13.093 0v-.222h-.13c-.421 0-.515-.047-.585-.27l-1.512-4.382c-.035-.082-.059-.13-.164-.13-.117 0-.129.036-.164.13L9.085-.691c-.13.364-.41.47-.785.47V0l.714-.024.809.024v-.223c-.352 0-.527-.164-.527-.352 0-.023 0-.093.011-.105l.328-.914h1.723l.375 1.066c0 .036.012.07.012.106 0 .2-.387.2-.574.2V0c.246-.024.738-.024 1.007-.024Zm-1.817-1.816h-1.57l.785-2.273zm6.996-.539c0-1.324-.949-2.426-2.144-2.426h-2.555v.223h.164c.54 0 .55.07.55.328v3.68c0 .258-.01.328-.55.328h-.164v.223h2.555c1.183 0 2.144-1.032 2.144-2.356m-.703 0c0 .785-.129 1.196-.375 1.547-.14.188-.539.586-1.254.586h-.703c-.328 0-.34-.047-.34-.27v-3.785c0-.234.012-.28.34-.28h.703c.434 0 .914.151 1.266.644.304.41.363 1.02.363 1.558m5.666.551h-.176c-.175 1.078-.328 1.582-1.535 1.582h-.926c-.328 0-.351-.047-.351-.27v-1.874h.633c.68 0 .761.222.761.82h.164v-1.852h-.164c0 .598-.082.82-.761.82h-.633v-1.687c0-.223.023-.27.351-.27h.903c1.066 0 1.254.376 1.37 1.348h.177l-.2-1.57h-3.937v.223h.164c.539 0 .55.07.55.328V-.55c0 .258-.011.328-.55.328h-.164v.223h4.031zm0 0" aria-label="SPADE" style="fill:#000;fill-opacity:1;fill-rule:nonzero;stroke:none" transform="translate(43.995 10.836)scale(.35278)"/><path d="M195.59 44.898a.403.403 0 0 0-.406-.406.4.4 0 0 0-.407.391c0 .25.203.406.407.406a.4.4 0 0 0 .406-.391M195.59 48.883a.403.403 0 0 0-.406-.406.4.4 0 0 0-.407.39c0 .25.203.406.407.406a.4.4 0 0 0 .406-.39" style="fill:#000;fill-opacity:1;fill-rule:nonzero;stroke:none" transform="translate(-4.337 -3.315)scale(.35278)"/><g clip-path="url(#v)" transform="translate(-4.337 -3.315)scale(.26458)"><path d="M195.59 52.867a.403.403 0 0 0-.406-.406.4.4 0 0 0-.407.391c0 .25.203.406.407.406a.4.4 0 0 0 .406-.391" style="fill:#000;fill-opacity:1;fill-rule:nonzero;stroke:none" transform="scale(1.33333)"/></g><path d="M16.184 28.23h23.402a3.62 3.62 0 0 1 3.625 3.625v11.493a3.62 3.62 0 0 1-3.625 3.625H16.184a3.62 3.62 0 0 1-3.625-3.625V31.855a3.62 3.62 0 0 1 3.625-3.625z" style="fill:url(#w);fill-rule:evenodd;stroke:#000;stroke-width:.529157;stroke-linecap:butt;stroke-linejoin:bevel;stroke-miterlimit:1;stroke-dasharray:none;stroke-opacity:1" transform="translate(-4.337 -3.315)scale(.35278)"/><g clip-path="url(#x)" transform="translate(-4.337 -3.315)scale(.26458)"><path d="M87.266 56.879c0-.109 0-.266-.172-.266s-.172.157-.172.266v6.422c0 .109 0 .265.156.265.188 0 .188-.156.188-.265z" style="fill:#000;fill-opacity:1;fill-rule:nonzero;stroke:none" transform="scale(1.33333)"/></g><path d="M90.008 61.098c-.063.234-.297.609-.656.609-.016 0-.235 0-.375-.094a.435.435 0 0 0 .312-.39c0-.157-.125-.25-.281-.25a.407.407 0 0 0-.406.422c0 .343.39.5.734.5.328 0 .609-.188.781-.485.172.36.547.485.828.485.813 0 1.235-.86 1.235-1.063 0-.094-.094-.094-.11-.094-.109 0-.109.047-.14.125-.141.485-.563.844-.953.844-.282 0-.422-.187-.422-.453 0-.188.172-.813.359-1.594.141-.531.453-.703.688-.703.015 0 .218 0 .375.094a.43.43 0 0 0-.313.39c0 .141.125.25.281.25a.4.4 0 0 0 .391-.421c0-.391-.453-.516-.719-.516-.359 0-.64.234-.781.5-.125-.281-.453-.5-.844-.5-.781 0-1.219.859-1.219 1.078 0 .078.094.078.11.078.094 0 .094-.015.14-.109.172-.547.61-.844.954-.844.234 0 .421.125.421.453 0 .141-.093.485-.156.735z" style="fill:#000;fill-opacity:1;fill-rule:nonzero;stroke:none" transform="translate(-4.337 -3.315)scale(.35278)"/><g clip-path="url(#y)" transform="translate(-4.337 -3.315)scale(.26458)"><path d="M97.512 61.328c0-.625-.469-.703-.828-.703-.5 0-.782.25-.922.469-.125-.469-.625-.469-.813-.469-.515 0-.812.281-.937.484v-.484l-.813.063v.218c.375 0 .422.032.422.266v1.234c0 .157 0 .203-.328.203h-.094v.219c.219-.015.422-.015.641-.015.203 0 .422 0 .64.015v-.219h-.093c-.328 0-.328-.046-.328-.203v-.859c0-.563.515-.75.828-.75.375 0 .453.203.453.516v1.093c0 .157 0 .203-.313.203h-.093v.219c.218-.015.421-.015.64-.015.203 0 .422 0 .625.015v-.219h-.094c-.312 0-.312-.046-.312-.203v-.859c0-.563.5-.75.828-.75.359 0 .453.203.453.516v1.093c0 .157 0 .203-.328.203h-.078v.219c.203-.015.422-.015.625-.015.219 0 .422 0 .641.015v-.219h-.094c-.328 0-.328-.046-.328-.203zM100.867 61.344c0-.469-.5-.75-1.125-.75-.297 0-.875.015-.875.437 0 .188.141.266.266.266s.25-.094.25-.266a.27.27 0 0 0-.11-.218c.172-.047.407-.047.454-.047.437 0 .687.234.687.593v.125c-.469.016-.75.032-1.125.172-.328.11-.625.328-.625.657 0 .453.578.578.984.578.375 0 .672-.157.829-.422.031.187.14.39.39.39.031 0 .61 0 .61-.484v-.266h-.219v.266c0 .047 0 .266-.188.266-.203 0-.203-.219-.203-.266zm-.453.781c0 .547-.594.594-.719.594-.297 0-.562-.156-.562-.406 0-.172.094-.625 1.281-.688zM104.836 60.688c-.141 0-.281.015-.469.015-.172 0-.375-.015-.562-.015v.218c.093 0 .109.078.109.094 0 .078-.062.141-.203.266l-.25.25c-.219-.219-.484-.485-.484-.532 0-.078.109-.078.125-.078v-.218c-.204 0-.579.015-.61.015-.203 0-.344 0-.547-.015v.218h.094c.313 0 .313 0 .578.266l.594.594-.547.547c-.141.125-.328.296-.75.296v.219c.141-.015.281-.015.469-.015.172 0 .375 0 .562.015v-.219c-.078-.015-.093-.062-.093-.093 0-.094.062-.157.093-.188l.407-.406.515.516c.047.062.047.062.047.078 0 .093-.109.093-.125.093v.219c.203-.015.578-.015.609-.015.204 0 .344 0 .547.015v-.219h-.093c-.266 0-.329-.046-.375-.078-.063-.031-.641-.64-.86-.859.61-.641.75-.766 1.219-.766z" style="fill:#000;fill-opacity:1;fill-rule:nonzero;stroke:none" transform="scale(1.33333)"/></g><g clip-path="url(#z)" transform="translate(-4.337 -3.315)scale(.26458)"><path d="M107.914 60.223c.047-.094.047-.11.047-.125 0-.047 0-.047-.047-.141l-1.297-3.172c-.047-.109-.094-.172-.203-.172a.173.173 0 0 0-.172.172c0 .016 0 .031.047.125l1.313 3.172-1.313 3.172c-.047.109-.047.125-.047.141 0 .109.094.171.172.171.125 0 .141-.078.188-.171z" style="fill:#000;fill-opacity:1;fill-rule:nonzero;stroke:none" transform="scale(1.33333)"/></g><g clip-path="url(#A)" transform="translate(-4.337 -3.315)scale(.26458)"><path d="M87.266 34.309c0-.11 0-.266-.172-.266s-.172.156-.172.266v6.421c0 .11 0 .266.156.266.188 0 .188-.156.188-.266z" style="fill:#000;fill-opacity:1;fill-rule:nonzero;stroke:none" transform="scale(1.33333)"/></g><path d="M90.008 38.527c-.063.235-.297.61-.656.61-.016 0-.235 0-.375-.094a.44.44 0 0 0 .312-.391c0-.156-.125-.25-.281-.25a.407.407 0 0 0-.406.422c0 .344.39.5.734.5.328 0 .609-.187.781-.484.172.359.547.484.828.484.813 0 1.235-.859 1.235-1.062 0-.094-.094-.094-.11-.094-.109 0-.109.047-.14.125-.141.484-.563.844-.953.844-.282 0-.422-.188-.422-.453 0-.188.172-.813.359-1.594.141-.531.453-.703.688-.703.015 0 .218 0 .375.093a.43.43 0 0 0-.313.391c0 .141.125.25.281.25a.4.4 0 0 0 .391-.422c0-.39-.453-.515-.719-.515-.359 0-.64.234-.781.5-.125-.282-.453-.5-.844-.5-.781 0-1.219.859-1.219 1.078 0 .078.094.078.11.078.094 0 .094-.016.14-.11.172-.546.61-.843.954-.843.234 0 .421.125.421.453 0 .14-.093.484-.156.734z" style="fill:#000;fill-opacity:1;fill-rule:nonzero;stroke:none" transform="translate(-4.337 -3.315)scale(.35278)"/><g clip-path="url(#B)" transform="translate(-4.337 -3.315)scale(.26458)"><path d="M94.434 38.602c.468 0 .765.296.765.781 0 .515-.312.781-.75.781-.062 0-.656 0-.906-.266.203-.031.266-.171.266-.296a.304.304 0 0 0-.313-.313c-.156 0-.297.109-.297.328 0 .516.578.75 1.266.75.812 0 1.312-.5 1.312-.984 0-.406-.359-.75-.922-.875.594-.203.75-.578.75-.86 0-.406-.5-.703-1.125-.703s-1.109.25-1.109.703a.28.28 0 0 0 .281.297.284.284 0 0 0 .282-.297.28.28 0 0 0-.235-.281c.203-.219.656-.234.766-.234.359 0 .609.172.609.515 0 .297-.187.75-.703.782-.141 0-.156 0-.297.015-.047 0-.109 0-.109.078 0 .079.047.079.14.079z" style="fill:#000;fill-opacity:1;fill-rule:nonzero;stroke:none" transform="scale(1.33333)"/></g><g clip-path="url(#C)" transform="translate(-4.337 -3.315)scale(.26458)"><path d="M98.883 37.652c.047-.093.047-.109.047-.125 0-.047 0-.047-.047-.14l-1.297-3.172c-.047-.11-.094-.172-.203-.172a.173.173 0 0 0-.172.172c0 .015 0 .031.047.125l1.312 3.172-1.312 3.172c-.047.109-.047.125-.047.14 0 .11.094.172.172.172.125 0 .14-.078.187-.172z" style="fill:#000;fill-opacity:1;fill-rule:nonzero;stroke:none" transform="scale(1.33333)"/></g><g clip-path="url(#D)" transform="translate(-4.337 -3.315)scale(.26458)"><path d="M87.266 23.023c0-.109 0-.265-.172-.265s-.172.156-.172.265v6.422c0 .11 0 .266.156.266.188 0 .188-.156.188-.266z" style="fill:#000;fill-opacity:1;fill-rule:nonzero;stroke:none" transform="scale(1.33333)"/></g><path d="M90.008 27.242c-.063.235-.297.61-.656.61-.016 0-.235 0-.375-.094a.44.44 0 0 0 .312-.391c0-.156-.125-.25-.281-.25a.407.407 0 0 0-.406.422c0 .344.39.5.734.5.328 0 .609-.187.781-.484.172.359.547.484.828.484.813 0 1.235-.859 1.235-1.062 0-.094-.094-.094-.11-.094-.109 0-.109.047-.14.125-.141.484-.563.844-.953.844-.282 0-.422-.188-.422-.454 0-.187.172-.812.359-1.593.141-.532.453-.703.688-.703.015 0 .218 0 .375.093a.43.43 0 0 0-.313.391c0 .141.125.25.281.25a.4.4 0 0 0 .391-.422c0-.391-.453-.516-.719-.516-.359 0-.64.235-.781.5-.125-.281-.453-.5-.844-.5-.781 0-1.219.86-1.219 1.079 0 .078.094.078.11.078.094 0 .094-.016.14-.11.172-.547.61-.843.954-.843.234 0 .421.125.421.453 0 .14-.093.484-.156.734z" style="fill:#000;fill-opacity:1;fill-rule:nonzero;stroke:none" transform="translate(-4.337 -3.315)scale(.35278)"/><g clip-path="url(#E)" transform="translate(-4.337 -3.315)scale(.26458)"><path d="M95.73 28.004h-.218c0 .094-.063.406-.141.453-.031.031-.453.031-.531.031h-.969c.328-.234.688-.515.984-.718.454-.313.875-.594.875-1.125 0-.641-.609-.985-1.312-.985-.672 0-1.172.375-1.172.875 0 .25.219.297.297.297a.283.283 0 0 0 .281-.297.27.27 0 0 0-.281-.281c.141-.234.437-.375.766-.375.484 0 .89.281.89.766 0 .421-.297.75-.672 1.062l-1.218 1.031c-.047.047-.063.047-.063.078v.157h2.313z" style="fill:#000;fill-opacity:1;fill-rule:nonzero;stroke:none" transform="scale(1.33333)"/></g><g clip-path="url(#F)" transform="translate(-4.337 -3.315)scale(.26458)"><path d="M98.883 26.367c.047-.094.047-.109.047-.125 0-.047 0-.047-.047-.14l-1.297-3.172c-.047-.11-.094-.172-.203-.172a.173.173 0 0 0-.172.172c0 .015 0 .031.047.125l1.312 3.172-1.312 3.171c-.047.11-.047.125-.047.141 0 .109.094.172.172.172.125 0 .14-.078.187-.172z" style="fill:#000;fill-opacity:1;fill-rule:nonzero;stroke:none" transform="scale(1.33333)"/></g><g clip-path="url(#G)" transform="translate(-4.337 -3.315)scale(.26458)"><path d="M87.266 11.738c0-.109 0-.265-.172-.265s-.172.156-.172.265v6.422c0 .11 0 .266.156.266.188 0 .188-.156.188-.266z" style="fill:#000;fill-opacity:1;fill-rule:nonzero;stroke:none" transform="scale(1.33333)"/></g><path d="M90.008 15.957c-.063.234-.297.609-.656.609-.016 0-.235 0-.375-.093a.44.44 0 0 0 .312-.391c0-.156-.125-.25-.281-.25a.407.407 0 0 0-.406.422c0 .344.39.5.734.5.328 0 .609-.188.781-.484.172.359.547.484.828.484.813 0 1.235-.859 1.235-1.063 0-.093-.094-.093-.11-.093-.109 0-.109.047-.14.125-.141.484-.563.843-.953.843-.282 0-.422-.187-.422-.453 0-.187.172-.812.359-1.593.141-.532.453-.704.688-.704.015 0 .218 0 .375.094a.43.43 0 0 0-.313.391c0 .14.125.25.281.25a.4.4 0 0 0 .391-.422c0-.391-.453-.516-.719-.516-.359 0-.64.235-.781.5-.125-.281-.453-.5-.844-.5-.781 0-1.219.86-1.219 1.078 0 .079.094.079.11.079.094 0 .094-.016.14-.11.172-.547.61-.844.954-.844.234 0 .421.125.421.454 0 .14-.093.484-.156.734z" style="fill:#000;fill-opacity:1;fill-rule:nonzero;stroke:none" transform="translate(-4.337 -3.315)scale(.35278)"/><g clip-path="url(#H)" transform="translate(-4.337 -3.315)scale(.26458)"><path d="M94.777 14.516c0-.141-.015-.141-.187-.141-.344.313-.906.313-1 .313h-.078v.218h.078c.109 0 .437-.015.734-.14v2.5c0 .14 0 .203-.531.203h-.25v.219c.266-.016.719-.016 1-.016.297 0 .734 0 1.016.016v-.219h-.25c-.532 0-.532-.063-.532-.203z" style="fill:#000;fill-opacity:1;fill-rule:nonzero;stroke:none" transform="scale(1.33333)"/></g><g clip-path="url(#I)" transform="translate(-4.337 -3.315)scale(.26458)"><path d="M98.883 15.082c.047-.094.047-.109.047-.125 0-.047 0-.047-.047-.141l-1.297-3.171c-.047-.11-.094-.172-.203-.172a.173.173 0 0 0-.172.172c0 .015 0 .031.047.125l1.312 3.171-1.312 3.172c-.047.11-.047.125-.047.141 0 .109.094.172.172.172.125 0 .14-.078.187-.172z" style="fill:#000;fill-opacity:1;fill-rule:nonzero;stroke:none" transform="scale(1.33333)"/></g><path d="M78.219 14.945h7.918M78.219 60.074h7.918M78.219 37.512h7.918" style="fill:none;stroke:#000;stroke-width:.5;stroke-linecap:butt;stroke-linejoin:bevel;stroke-miterlimit:1;stroke-dasharray:none;stroke-opacity:1" transform="translate(-4.337 -3.315)scale(.35278)"/><path d="m78.219 26.23 7.918-.003" style="fill:#95d0fc;fill-opacity:1;fill-rule:evenodd;stroke:#000;stroke-width:.5;stroke-linecap:butt;stroke-linejoin:bevel;stroke-miterlimit:1;stroke-dasharray:none;stroke-opacity:1" transform="translate(-4.337 -3.315)scale(.35278)"/><path d="M71.914 9.648c3.535 0 6.402 2.352 6.402 5.25 0 2.903-2.867 5.254-6.402 5.254z" style="fill:url(#J);fill-rule:evenodd;stroke:#000;stroke-width:.5;stroke-linecap:butt;stroke-linejoin:bevel;stroke-miterlimit:1;stroke-dasharray:none;stroke-opacity:1" transform="translate(-4.337 -3.315)scale(.35278)"/><path d="M71.914 20.953c3.535 0 6.402 2.352 6.402 5.254 0 2.898-2.867 5.25-6.402 5.25z" style="fill:url(#K);fill-rule:evenodd;stroke:#000;stroke-width:.5;stroke-linecap:butt;stroke-linejoin:bevel;stroke-miterlimit:1;stroke-dasharray:none;stroke-opacity:1" transform="translate(-4.337 -3.315)scale(.35278)"/><path d="M71.914 32.258c3.535 0 6.402 2.351 6.402 5.254 0 2.898-2.867 5.25-6.402 5.25z" style="fill:url(#L);fill-rule:evenodd;stroke:#000;stroke-width:.5;stroke-linecap:butt;stroke-linejoin:bevel;stroke-miterlimit:1;stroke-dasharray:none;stroke-opacity:1" transform="translate(-4.337 -3.315)scale(.35278)"/><path d="M71.914 54.867c3.535 0 6.402 2.352 6.402 5.254s-2.867 5.254-6.402 5.254z" style="fill:url(#M);fill-rule:evenodd;stroke:#000;stroke-width:.5;stroke-linecap:butt;stroke-linejoin:bevel;stroke-miterlimit:1;stroke-dasharray:none;stroke-opacity:1" transform="translate(-4.337 -3.315)scale(.35278)"/><path d="M4.946-2.355c0-1.324-.949-2.425-2.144-2.425H.247v.222h.164c.54 0 .551.07.551.328v3.68c0 .258-.012.328-.55.328H.246v.223h2.555C3.985 0 4.946-1.03 4.946-2.355m-.703 0c0 .785-.129 1.196-.375 1.547-.14.188-.539.586-1.254.586h-.703c-.328 0-.34-.047-.34-.27v-3.785c0-.234.012-.28.34-.28h.703c.434 0 .914.152 1.266.644.305.41.363 1.02.363 1.558M7.68.001v-.223h-.188c-.55 0-.574-.07-.574-.328v-3.68c0-.258.023-.328.574-.328h.188v-.222c-.246.023-.797.023-1.067.023s-.82 0-1.066-.023v.222h.176c.55 0 .574.07.574.328v3.68c0 .258-.024.328-.574.328h-.176v.223c.246-.024.797-.024 1.055-.024.28 0 .832 0 1.078.024m0 0" aria-label="DI" style="fill:#000;fill-opacity:1;fill-rule:nonzero;stroke:none" transform="translate(4.106 10.786)scale(.35278)"/><path d="m71.027 65.434-.007-7.579-.016-2.117-.02-1.394-.031-1.114-.039-.886-.047-.781-.054-.672-.059-.61-.07-.558-.082-.555-.086-.5-.106-.504-.121-.5-.121-.449-.137-.449-.16-.45-.176-.445-.195-.449-.215-.449-.246-.45-.266-.445-.293-.449-.316-.449-.391-.5-.421-.504-.457-.5-.543-.559-.645-.609-.746-.672-.859-.727-1.176-.945-2.789-2.23-.774-.672-.601-.559-.496-.5-.403-.449-.316-.395-.281-.394-.211-.332-.176-.332-.129-.278-.102-.277-.082-.277-.05-.223-.036-.226-.019-.223-.004-.227.008-.222.023-.223.043-.227.055-.222.066-.223.11-.281.129-.277.148-.278.207-.332.234-.332.309-.394.34-.395.43-.445.523-.504.621-.555.797-.672 1.18-.949 2.445-1.949.922-.781.746-.672.637-.61.539-.554.5-.559.414-.5.383-.504.343-.5.282-.449.254-.449.234-.449.211-.446.187-.449.168-.449.149-.449.133-.446.117-.449.113-.504.098-.5.082-.504.078-.554.066-.61.059-.609.027-.395" style="fill:#2ca02c;fill-opacity:.3;fill-rule:nonzero;stroke:#000;stroke-width:.5;stroke-linecap:round;stroke-linejoin:round;stroke-miterlimit:4;stroke-dasharray:none;stroke-opacity:1" transform="translate(-4.337 -3.315)scale(.35278)"/><path d="M54.969 37.586c-.903.297-2.102.898-2.699 1.5 0 0 0-1.203.597-1.5-.597-.301-.597-1.5-.597-1.5.597.598 1.796 1.199 2.699 1.5z" style="fill:#000;fill-opacity:1;fill-rule:evenodd;stroke:#000;stroke-width:.400001;stroke-linecap:butt;stroke-linejoin:round;stroke-miterlimit:4;stroke-dasharray:none;stroke-opacity:1" transform="translate(-4.337 -3.315)scale(.35278)"/><path d="M46.512 37.586h6.656" style="fill:none;stroke:#000;stroke-width:.600001;stroke-linecap:round;stroke-linejoin:miter;stroke-miterlimit:1;stroke-dasharray:none;stroke-opacity:1" transform="translate(-4.337 -3.315)scale(.35278)"/><path d="M75.02 44.801a.403.403 0 0 0-.407-.406.4.4 0 0 0-.406.39c0 .25.203.406.406.406a.4.4 0 0 0 .407-.39M75.02 48.785a.403.403 0 0 0-.407-.406.4.4 0 0 0-.406.391c0 .25.203.406.406.406a.4.4 0 0 0 .407-.391" style="fill:#000;fill-opacity:1;fill-rule:nonzero;stroke:none" transform="translate(-4.337 -3.315)scale(.35278)"/><g clip-path="url(#N)" transform="translate(-4.337 -3.315)scale(.26458)"><path d="M75.02 52.77a.404.404 0 0 0-.407-.407.4.4 0 0 0-.406.391c0 .25.203.406.406.406a.4.4 0 0 0 .407-.39" style="fill:#000;fill-opacity:1;fill-rule:nonzero;stroke:none" transform="scale(1.33333)"/></g></svg>