<svg xmlns="http://www.w3.org/2000/svg" xml:space="preserve" width="299.578" height="89.302" viewBox="0 0 79.263 23.628"><path d="M67.757 18.52H51.48c-1.624 1.722-2.692 4.671-2.692 8.023s1.068 6.301 2.692 8.023h16.277c1.624-1.722 2.692-4.671 2.692-8.023s-1.068-6.301-2.692-8.023z" style="fill:none;stroke:#000;stroke-width:.707577;stroke-linecap:butt;stroke-linejoin:miter;stroke-miterlimit:4;stroke-dasharray:none;stroke-opacity:1" transform="matrix(.3522 0 0 .35278 -2.944 -.774)"/><path d="M62.121 24.828c0-1.504-.562-2.558-1.57-2.558-1.781 0-3.633 3.332-3.633 5.984 0 1.152.398 2.562 1.594 2.562 1.734 0 3.609-3.242 3.609-5.988m-3.844 1.504c.563-2.422 1.524-3.734 2.274-3.734.726 0 .726 1.289.726 1.523 0 .66-.234 1.621-.375 2.211zm2.532.422c-.563 2.394-1.547 3.734-2.297 3.734-.633 0-.703-.965-.703-1.504 0-.777.211-1.738.351-2.23zm44.003 3.062c-.046.188-.046.258-.046.282 0 .308.234.379.375.379.07 0 .328-.024.492-.332.07-.141.305-1.243.726-2.887.141.258.539.75 1.266.75 1.453 0 3.07-1.594 3.07-3.403 0-1.339-.89-1.996-1.828-1.996-1.101 0-2.508.985-2.929 2.723zm2.79-2.136c-.821 0-1.079-.868-1.079-1.032 0-.046.305-1.269.329-1.363.539-2.113 1.664-2.347 2.015-2.347.563 0 .891.515.891 1.171 0 .45-.235 1.645-.586 2.375-.352.68-.984 1.196-1.57 1.196m8.171-1.996c0-1.032-.445-2.02-1.335-2.02-1.411 0-2.887 2.348-2.887 4.414 0 1.176.515 2.02 1.336 2.02 1.41 0 2.886-2.395 2.886-4.414m-3.168 1.011c.563-2.23 1.387-2.726 1.809-2.726.633 0 .633 1.082.633 1.222 0 .071 0 .586-.235 1.504zm2.114.375c-.516 2.02-1.317 2.723-1.809 2.723-.609 0-.633-.891-.633-1.219 0-.308.024-.683.235-1.504zM8.391 29.816c-.047.188-.047.258-.047.282 0 .308.234.379.375.379.07 0 .328-.024.492-.332.07-.141.305-1.243.727-2.887.14.258.539.75 1.265.75 1.453 0 3.07-1.594 3.07-3.403 0-1.339-.89-1.996-1.828-1.996-1.101 0-2.507.985-2.929 2.723zm2.789-2.136c-.821 0-1.078-.868-1.078-1.032 0-.046.304-1.269.328-1.363.539-2.113 1.664-2.347 2.015-2.347.563 0 .891.515.891 1.171 0 .45-.234 1.645-.586 2.375-.352.68-.984 1.196-1.57 1.196" style="fill:#000;fill-opacity:1;fill-rule:nonzero;stroke:none" transform="translate(-2.944 -.774)scale(.35278)"/><path d="M199.639 11.34h30.402v22.441h-30.402z" style="fill:#ccc;fill-opacity:1;fill-rule:nonzero;stroke:#000;stroke-width:.510681;stroke-linecap:butt;stroke-linejoin:miter;stroke-miterlimit:4;stroke-dasharray:none;stroke-opacity:1" transform="matrix(.3522 0 0 .35278 -2.944 -.774)"/><path d="M227.87 28.289c0 1.832-1.452 3.32-3.244 3.32h-19.571c-1.789 0-3.244-1.488-3.244-3.32v-12.18c0-1.832 1.455-3.32 3.244-3.32h19.571c1.792 0 3.244 1.488 3.244 3.32z" style="fill:#fff;fill-opacity:1;fill-rule:nonzero;stroke:#000;stroke-width:.510681;stroke-linecap:butt;stroke-linejoin:miter;stroke-miterlimit:4;stroke-dasharray:none;stroke-opacity:1" transform="matrix(.3522 0 0 .35278 -2.944 -.774)"/><path d="M232.937 40.293h-36.193l2.895-4.34h30.402z" style="fill:#ccc;fill-opacity:1;fill-rule:nonzero;stroke:#000;stroke-width:.51068;stroke-linecap:butt;stroke-linejoin:miter;stroke-miterlimit:4;stroke-dasharray:none;stroke-opacity:1" transform="matrix(.3522 0 0 .35278 -2.944 -.774)"/><path d="M196.744 40.293h36.193v1.449h-36.193z" style="fill:#000;fill-opacity:1;fill-rule:nonzero;stroke:#000;stroke-width:.510681;stroke-linecap:butt;stroke-linejoin:miter;stroke-miterlimit:4;stroke-dasharray:none;stroke-opacity:1" transform="matrix(.3522 0 0 .35278 -2.944 -.774)"/><path d="M200.324 37.004h20.945m-21.802 1.129h22.072m-22.972 1.129h23.199m.282-2.258h7.532m-7.259 1.129h7.81m-7.54 1.129h8.174" style="fill:none;stroke:#000;stroke-width:.510681;stroke-linecap:butt;stroke-linejoin:miter;stroke-miterlimit:4;stroke-dasharray:none;stroke-opacity:1" transform="matrix(.3522 0 0 .35278 -2.944 -.774)"/><path d="m215.465 16.305-1.688 1.597.235.305 1.453-1.199 1.453 1.199.258-.281zm1.531 5.601c0-1.504-.562-2.558-1.57-2.558-1.781 0-3.633 3.336-3.633 5.988 0 1.148.398 2.559 1.594 2.559 1.734 0 3.609-3.239 3.609-5.989m-3.844 1.504c.563-2.418 1.524-3.734 2.274-3.734.726 0 .726 1.293.726 1.527 0 .656-.234 1.621-.375 2.207zm2.532.422c-.563 2.395-1.547 3.734-2.297 3.734-.633 0-.703-.964-.703-1.504 0-.773.211-1.738.351-2.23z" style="fill:#000;fill-opacity:1;fill-rule:nonzero;stroke:none" transform="translate(-2.944 -.774)scale(.35278)"/><path d="M25.155 26.543h11.64" style="fill:none;stroke:#000;stroke-width:.819707;stroke-linecap:butt;stroke-linejoin:miter;stroke-miterlimit:4;stroke-dasharray:none;stroke-opacity:1" transform="matrix(.3522 0 0 .35278 -2.944 -.774)"/><path d="m-34.542-29-2.457 2.457 2.457 2.461" style="fill:none;stroke:#000;stroke-width:.819707;stroke-linecap:butt;stroke-linejoin:miter;stroke-miterlimit:4;stroke-dasharray:none;stroke-opacity:1" transform="matrix(-.3522 0 0 -.35278 -2.944 -.774)"/><path d="M81.659 26.543h11.64" style="fill:none;stroke:#000;stroke-width:.819707;stroke-linecap:butt;stroke-linejoin:miter;stroke-miterlimit:4;stroke-dasharray:none;stroke-opacity:1" transform="matrix(.3522 0 0 .35278 -2.944 -.774)"/><path d="m-91.045-29-2.458 2.457 2.458 2.461" style="fill:none;stroke:#000;stroke-width:.819707;stroke-linecap:butt;stroke-linejoin:miter;stroke-miterlimit:4;stroke-dasharray:none;stroke-opacity:1" transform="matrix(-.3522 0 0 -.35278 -2.944 -.774)"/><path d="M172.986 26.543h11.64" style="fill:none;stroke:#000;stroke-width:.819707;stroke-linecap:butt;stroke-linejoin:miter;stroke-miterlimit:4;stroke-dasharray:none;stroke-opacity:1" transform="matrix(.3522 0 0 .35278 -2.944 -.774)"/><path d="m-182.372-29-2.462 2.457 2.462 2.461" style="fill:none;stroke:#000;stroke-width:.819707;stroke-linecap:butt;stroke-linejoin:miter;stroke-miterlimit:4;stroke-dasharray:none;stroke-opacity:1" transform="matrix(-.3522 0 0 -.35278 -2.944 -.774)"/><path d="M126.819 26.543h11.641" style="fill:none;stroke:#000;stroke-width:.819707;stroke-linecap:butt;stroke-linejoin:miter;stroke-miterlimit:4;stroke-dasharray:none;stroke-opacity:1" transform="matrix(.3522 0 0 .35278 -2.944 -.774)"/><path d="m-136.206-29-2.461 2.457 2.461 2.461" style="fill:none;stroke:#000;stroke-width:.819707;stroke-linecap:butt;stroke-linejoin:miter;stroke-miterlimit:4;stroke-dasharray:none;stroke-opacity:1" transform="matrix(-.3522 0 0 -.35278 -2.944 -.774)"/><path d="M154.549 19.234c-.724 0-1.424.11-2.085.309v13.996a7.2 7.2 0 0 0 2.085.309c4.034 0 7.305-3.27 7.305-7.305s-3.271-7.309-7.305-7.309z" style="fill:#ccc;fill-opacity:1;fill-rule:nonzero;stroke:#000;stroke-width:.552209;stroke-linecap:butt;stroke-linejoin:miter;stroke-miterlimit:4;stroke-dasharray:none;stroke-opacity:1" transform="matrix(.3522 0 0 .35278 -2.944 -.774)"/><path d="M150.378 18.191h2.085V34.89h-2.085z" style="fill:#000;fill-opacity:1;fill-rule:nonzero;stroke:#000;stroke-width:.552209;stroke-linecap:butt;stroke-linejoin:miter;stroke-miterlimit:4;stroke-dasharray:none;stroke-opacity:1" transform="matrix(.3522 0 0 .35278 -2.944 -.774)"/><path d="M107.303 32.004c0 34.246-21.488 34.284-21.488 34.284M11.36 32.004c0 34.246 21.625 34.3 21.625 34.3" style="fill:none;stroke:#999;stroke-width:1.21228;stroke-linecap:butt;stroke-linejoin:miter;stroke-miterlimit:4;stroke-dasharray:none;stroke-opacity:1" transform="matrix(.3522 0 0 .35278 -2.944 -.774)"/><path d="M14.572 2.96c0-.043 0-.065-.033-.065-.011 0-.017 0-.05.027a.4.4 0 0 1-.044.039.47.47 0 0 0-.259-.066c-.353 0-.436.187-.436.308 0 .078.034.144.094.193.094.078.188.094.342.122.121.022.32.055.32.22 0 .094-.066.21-.304.21s-.32-.155-.363-.32c-.011-.033-.011-.044-.044-.044-.045 0-.045.016-.045.066v.303c0 .039 0 .06.034.06.022 0 .071-.049.12-.104a.4.4 0 0 0 .298.105c.32 0 .441-.171.441-.342a.29.29 0 0 0-.11-.226.5.5 0 0 0-.292-.121c-.193-.039-.353-.066-.353-.199 0-.077.066-.17.298-.17.287 0 .298.198.303.27 0 .027.033.027.039.027.044 0 .044-.016.044-.066zm1.262.47c.055 0 .072 0 .072-.05 0-.22-.121-.485-.49-.485a.56.56 0 0 0-.569.556c0 .315.276.563.601.563.331 0 .458-.265.458-.32 0-.005-.006-.033-.044-.033-.033 0-.039.016-.044.039a.375.375 0 0 1-.353.237.37.37 0 0 1-.298-.144c-.094-.116-.094-.264-.094-.364Zm-.76-.061c.027-.347.247-.403.341-.403.303 0 .314.342.32.403zm2.197-.121c0-.215-.105-.342-.37-.342-.203 0-.33.11-.402.242v-.242l-.363.027v.089c.165 0 .187.016.187.137v.64c0 .104-.028.104-.187.104v.089c.005 0 .176-.011.28-.011.089 0 .26.01.282.01v-.088c-.16 0-.182 0-.182-.104v-.447c0-.253.204-.375.364-.375.17 0 .193.133.193.26v.562c0 .104-.022.104-.182.104v.089c.005 0 .176-.011.28-.011.089 0 .26.01.282.01v-.088c-.16 0-.182 0-.182-.104zm1.216-.287c0-.044 0-.066-.033-.066-.01 0-.016 0-.05.027a.4.4 0 0 1-.044.039.47.47 0 0 0-.259-.066c-.352 0-.435.187-.435.308q.001.118.094.193c.093.078.187.094.341.122.122.022.32.055.32.22 0 .094-.066.21-.303.21s-.32-.155-.364-.32c-.01-.033-.01-.044-.044-.044-.044 0-.044.016-.044.066v.303c0 .039 0 .06.033.06.022 0 .072-.049.121-.104a.4.4 0 0 0 .298.105c.32 0 .44-.171.44-.342a.29.29 0 0 0-.11-.226.5.5 0 0 0-.292-.121c-.192-.039-.352-.066-.352-.199 0-.077.066-.17.297-.17.287 0 .298.198.304.27 0 .027.033.027.038.027.044 0 .044-.016.044-.066zm.7-.485a.146.146 0 0 0-.143-.143.14.14 0 0 0-.138.143c0 .088.072.143.138.143.083 0 .143-.06.143-.143m-.375.457v.089c.155 0 .177.016.177.137v.64c0 .104-.022.104-.182.104v.089c.005 0 .176-.011.276-.011q.133.001.259.01v-.088c-.144 0-.166 0-.166-.104v-.893zm1.92.315c0-.215-.104-.342-.369-.342-.204 0-.33.11-.402.242v-.242l-.364.027v.089c.165 0 .187.016.187.137v.64c0 .104-.027.104-.187.104v.089c.006 0 .176-.011.281-.011.088 0 .26.01.281.01v-.088c-.16 0-.182 0-.182-.104v-.447c0-.253.204-.375.364-.375.171 0 .193.133.193.26v.562c0 .104-.022.104-.182.104v.089c.006 0 .177-.011.281-.011.089 0 .26.01.281.01v-.088c-.16 0-.181 0-.181-.104zm.638.308a.5.5 0 0 0 .27.072c.254 0 .435-.165.435-.358 0-.1-.044-.171-.104-.237a.44.44 0 0 1 .253-.083c-.01.01-.022.022-.022.06 0 .05.033.078.077.078.034 0 .078-.022.078-.077 0-.061-.044-.127-.144-.127a.43.43 0 0 0-.286.11.5.5 0 0 0-.287-.088c-.254 0-.435.17-.435.364 0 .093.05.181.115.248a.36.36 0 0 0-.071.198c0 .033.005.149.104.22-.11.034-.242.116-.242.243 0 .182.27.314.606.314.309 0 .601-.121.601-.32a.31.31 0 0 0-.165-.275c-.144-.077-.292-.077-.53-.077-.055 0-.143 0-.16-.006a.16.16 0 0 1-.126-.16c0-.06.022-.082.033-.099m.27 0c-.237 0-.237-.237-.237-.286 0-.039 0-.138.044-.204a.27.27 0 0 1 .193-.083c.243 0 .243.237.243.287 0 .038 0 .137-.05.198a.26.26 0 0 1-.193.088m0 .43c.22 0 .53 0 .53.193 0 .132-.2.243-.453.243-.259 0-.452-.116-.452-.243 0-.088.077-.193.232-.193zm26.014-1.411v.088c.165 0 .182.022.182.138v.513a.48.48 0 0 0-.342-.144c-.33 0-.6.248-.6.557s.258.551.567.551a.49.49 0 0 0 .364-.149v.15l.38-.023v-.088c-.165 0-.182-.017-.182-.138V2.547Zm.17 1.422a.4.4 0 0 1-.346.215.35.35 0 0 1-.287-.154c-.05-.072-.077-.171-.077-.326 0-.06 0-.242.099-.358.1-.11.22-.132.292-.132.116 0 .226.055.292.143.028.039.028.039.028.088zm1.586-.303c.055 0 .072 0 .072-.05 0-.22-.121-.485-.49-.485a.56.56 0 0 0-.568.557c0 .314.275.562.6.562.331 0 .458-.264.458-.32 0-.005-.006-.033-.044-.033-.033 0-.039.017-.044.039a.375.375 0 0 1-.353.237.37.37 0 0 1-.298-.143c-.093-.116-.093-.265-.093-.364Zm-.76-.06c.027-.348.248-.403.341-.403.304 0 .315.342.32.402zm1.426-.348h.38v-.088h-.38v-.452h-.089c0 .22-.099.463-.336.468v.072h.226v.661c0 .276.21.331.347.331.166 0 .276-.138.276-.33V3.81h-.083v.132c0 .17-.077.259-.176.259-.165 0-.165-.204-.165-.248zm1.682.408c.055 0 .072 0 .072-.05 0-.22-.122-.485-.49-.485a.56.56 0 0 0-.569.557c0 .314.276.562.601.562.331 0 .458-.264.458-.32 0-.005-.006-.033-.044-.033-.033 0-.039.017-.044.039a.375.375 0 0 1-.353.237.37.37 0 0 1-.298-.143c-.094-.116-.094-.265-.094-.364Zm-.76-.06c.027-.348.247-.403.341-.403.303 0 .314.342.32.402zm1.883-.36a.12.12 0 0 0-.066.111c0 .066.044.116.115.116.067 0 .116-.044.116-.121 0-.22-.342-.22-.408-.22a.573.573 0 0 0-.595.567c0 .309.26.551.584.551.364 0 .452-.286.452-.32 0-.027-.033-.027-.044-.027-.033 0-.033.005-.044.044a.34.34 0 0 1-.336.226c-.171 0-.392-.127-.392-.48 0-.308.155-.485.38-.485a.6.6 0 0 1 .238.039m.792.01h.38v-.087h-.38v-.452h-.088c0 .22-.1.463-.337.468v.072h.226v.661c0 .276.21.331.348.331.165 0 .275-.138.275-.33V3.81h-.082v.132c0 .17-.078.259-.177.259-.165 0-.165-.204-.165-.248zm1.12-.545a.146.146 0 0 0-.143-.143.14.14 0 0 0-.138.143c0 .088.072.144.138.144.083 0 .143-.061.143-.144m-.375.458v.088c.155 0 .177.016.177.138v.64c0 .104-.022.104-.182.104v.088c.005 0 .176-.01.275-.01q.134.001.26.01v-.088c-.144 0-.166 0-.166-.105V3.17zm1.954.534a.59.59 0 0 0-.601-.573c-.342 0-.607.265-.607.573 0 .304.27.546.607.546.33 0 .6-.242.6-.546m-.6.469a.36.36 0 0 1-.309-.149c-.066-.1-.072-.226-.072-.342 0-.104 0-.253.089-.358a.38.38 0 0 1 .292-.121c.143 0 .248.066.303.143.066.094.072.22.072.336s-.006.248-.078.348a.36.36 0 0 1-.297.143m1.969-.69c0-.214-.105-.34-.37-.34-.204 0-.33.11-.402.242V3.17l-.364.028v.088c.165 0 .187.016.187.138v.64c0 .104-.027.104-.187.104v.088c.006 0 .176-.01.281-.01.088 0 .26.01.281.01v-.088c-.16 0-.182 0-.182-.105v-.446c0-.254.204-.375.364-.375.171 0 .193.132.193.259v.562c0 .105-.022.105-.182.105v.088c.006 0 .177-.01.281-.01.088 0 .26.01.281.01v-.088c-.16 0-.181 0-.181-.105zm9.489-2.414c.055 0 .071 0 .071-.05 0-.22-.12-.485-.49-.485a.56.56 0 0 0-.568.557c0 .314.276.562.6.562.332 0 .458-.264.458-.32 0-.005-.005-.033-.044-.033-.033 0-.038.017-.044.039a.375.375 0 0 1-.353.237.37.37 0 0 1-.297-.143c-.094-.116-.094-.265-.094-.364Zm-.761-.06c.028-.348.248-.403.342-.403.303 0 .314.342.32.402zm1.861-.409c0-.044 0-.066-.033-.066-.01 0-.016 0-.05.028-.005.005-.027.027-.043.038a.47.47 0 0 0-.26-.066c-.352 0-.435.188-.435.309q.001.117.094.193c.094.077.187.094.342.121.12.022.32.055.32.22 0 .094-.067.21-.304.21s-.32-.154-.364-.32c-.01-.033-.01-.044-.044-.044-.044 0-.044.017-.044.066v.304c0 .038 0 .06.033.06.022 0 .072-.05.121-.105a.4.4 0 0 0 .298.105c.32 0 .441-.17.441-.342a.29.29 0 0 0-.11-.226.5.5 0 0 0-.292-.12c-.193-.04-.353-.067-.353-.2 0-.076.066-.17.298-.17.286 0 .297.198.303.27 0 .028.033.028.038.028.044 0 .044-.017.044-.067zm.678.061h.38V.601h-.38V.149h-.088c0 .22-.099.463-.336.468V.69h.226v.661c0 .276.21.331.347.331.166 0 .276-.138.276-.33v-.138h-.083v.132c0 .17-.077.259-.176.259-.166 0-.166-.204-.166-.248zm1.12-.546A.146.146 0 0 0 69.985 0a.14.14 0 0 0-.137.143c0 .089.071.144.137.144.083 0 .144-.061.144-.144m-.375.458v.088c.154 0 .176.017.176.138v.64c0 .104-.022.104-.182.104v.088c.006 0 .177-.01.276-.01q.133.001.26.01v-.088c-.144 0-.166 0-.166-.105V.573zm2.675.314c0-.215-.11-.342-.37-.342a.43.43 0 0 0-.396.232c-.05-.177-.182-.232-.358-.232-.204 0-.331.11-.403.243V.573l-.363.028v.088c.165 0 .187.017.187.138v.64c0 .104-.028.104-.187.104v.088c.005 0 .176-.01.28-.01.089 0 .26.01.282.01v-.088c-.16 0-.182 0-.182-.105V1.02c0-.254.204-.375.364-.375.17 0 .193.132.193.259v.562c0 .105-.022.105-.182.105v.088c.005 0 .176-.01.28-.01.089 0 .26.01.282.01v-.088c-.16 0-.182 0-.182-.105V1.02c0-.254.204-.375.364-.375.17 0 .193.132.193.259v.562c0 .105-.022.105-.182.105v.088c.005 0 .176-.01.281-.01.088 0 .259.01.281.01v-.088c-.16 0-.182 0-.182-.105zm1.383.083c0-.127 0-.22-.116-.314a.54.54 0 0 0-.364-.122c-.231 0-.396.088-.396.237 0 .083.055.122.12.122s.117-.05.117-.116a.11.11 0 0 0-.089-.11c.089-.061.232-.061.243-.061.138 0 .292.088.292.298v.071a1.5 1.5 0 0 0-.48.083c-.22.077-.286.215-.286.325 0 .21.253.27.43.27a.41.41 0 0 0 .364-.204c.005.1.071.193.187.193.006 0 .243 0 .243-.231V1.3h-.083v.132c0 .028 0 .143-.094.143-.088 0-.088-.115-.088-.143zm-.193.314c0 .237-.21.303-.32.303-.126 0-.242-.083-.242-.204 0-.138.116-.325.562-.342zm.993-.623h.38V.601h-.38V.149h-.088c0 .22-.1.463-.336.468V.69h.226v.661c0 .276.21.331.347.331.165 0 .276-.138.276-.33v-.138h-.083v.132c0 .17-.077.259-.176.259-.166 0-.166-.204-.166-.248zm1.12-.546A.146.146 0 0 0 75.589 0a.14.14 0 0 0-.138.143c0 .089.072.144.138.144.083 0 .144-.061.144-.144m-.375.458v.088c.154 0 .176.017.176.138v.64c0 .104-.022.104-.182.104v.088c.006 0 .177-.01.276-.01q.133.001.259.01v-.088c-.143 0-.165 0-.165-.105V.573zm1.953.535a.59.59 0 0 0-.6-.574c-.343 0-.607.265-.607.574 0 .303.27.545.606.545.33 0 .6-.242.6-.545m-.6.468a.36.36 0 0 1-.309-.149c-.066-.099-.071-.226-.071-.342 0-.104 0-.253.088-.358a.38.38 0 0 1 .292-.121c.143 0 .248.066.303.143.066.094.072.22.072.336s-.006.249-.077.348a.36.36 0 0 1-.298.143m1.969-.689c0-.215-.105-.342-.37-.342-.203 0-.33.11-.402.243V.573l-.364.028v.088c.166 0 .188.017.188.138v.64c0 .104-.028.104-.188.104v.088c.006 0 .177-.01.282-.01.088 0 .259.01.28.01v-.088c-.16 0-.181 0-.181-.105V1.02c0-.254.204-.375.364-.375.17 0 .193.132.193.259v.562c0 .105-.023.105-.182.105v.088c.005 0 .176-.01.28-.01.089 0 .26.01.282.01v-.088c-.16 0-.182 0-.182-.105zM10.307 22.062h-.077l-.088.215a.44.44 0 0 0-.375-.215c-.314 0-.59.243-.59.557 0 .309.259.551.568.551a.48.48 0 0 0 .364-.165v.424c0 .105-.023.105-.182.105v.094c.005 0 .176-.011.28-.011.089 0 .26.005.282.01v-.093c-.16 0-.182 0-.182-.105zm-.187.733c0 .045 0 .056-.034.116a.39.39 0 0 1-.325.193c-.204 0-.364-.22-.364-.48 0-.292.193-.479.392-.479.204 0 .33.198.33.336Zm1.305-.705v.088c.166 0 .182.017.182.138v.424c0 .215-.138.364-.325.364-.22 0-.232-.105-.232-.231v-.81l-.38.027v.088c.188 0 .188.011.188.226v.37c0 .17 0 .396.407.396.056 0 .232 0 .353-.204v.204l.37-.022v-.088c-.166 0-.182-.016-.182-.138v-.86zm1.762.397c0-.127 0-.22-.116-.314a.54.54 0 0 0-.363-.122c-.232 0-.397.089-.397.237 0 .083.055.122.121.122s.116-.05.116-.116a.11.11 0 0 0-.088-.11c.088-.061.231-.061.242-.061.138 0 .292.088.292.298v.071a1.5 1.5 0 0 0-.48.083c-.22.077-.286.215-.286.325 0 .21.254.27.43.27a.41.41 0 0 0 .364-.204c.005.1.071.193.187.193.006 0 .243 0 .243-.231v-.138h-.083v.132c0 .028 0 .144-.094.144-.088 0-.088-.116-.088-.144zm-.193.314c0 .237-.21.303-.32.303-.126 0-.242-.083-.242-.204 0-.138.116-.325.562-.342zm1.765-.397c0-.215-.105-.342-.37-.342-.203 0-.33.11-.402.243v-.243l-.363.028v.088c.165 0 .187.017.187.138v.64c0 .104-.028.104-.187.104v.088c.005 0 .176-.01.28-.01.089 0 .26.01.282.01v-.088c-.16 0-.182 0-.182-.105v-.446c0-.254.204-.375.364-.375.17 0 .193.132.193.26v.561c0 .105-.022.105-.182.105v.088c.005 0 .176-.01.28-.01.09 0 .26.01.282.01v-.088c-.16 0-.182 0-.182-.105zm.705-.226h.38v-.088h-.38v-.452h-.089c0 .22-.099.463-.336.468v.072h.226v.662c0 .275.21.33.347.33.166 0 .276-.137.276-.33v-.138h-.083v.132c0 .17-.077.26-.176.26-.165 0-.165-.205-.165-.249zm1.49-.088v.088c.164 0 .181.017.181.138v.424c0 .215-.138.364-.325.364-.22 0-.232-.105-.232-.231v-.81l-.38.027v.088c.187 0 .187.011.187.226v.37c0 .17 0 .396.408.396.055 0 .232 0 .353-.204v.204l.37-.022v-.088c-.166 0-.183-.016-.183-.138v-.86zm2.687.314c0-.215-.11-.342-.37-.342a.43.43 0 0 0-.396.232c-.05-.177-.182-.232-.358-.232-.204 0-.331.11-.403.243v-.243l-.364.028v.088c.166 0 .188.017.188.138v.64c0 .104-.028.104-.188.104v.088c.006 0 .177-.01.281-.01.089 0 .26.01.282.01v-.088c-.16 0-.182 0-.182-.105v-.446c0-.254.204-.375.363-.375.171 0 .193.132.193.26v.561c0 .105-.022.105-.181.105v.088c.005 0 .176-.01.28-.01.089 0 .26.01.282.01v-.088c-.16 0-.182 0-.182-.105v-.446c0-.254.204-.375.364-.375.17 0 .193.132.193.26v.561c0 .105-.022.105-.182.105v.088c.005 0 .176-.01.28-.01.089 0 .26.01.282.01v-.088c-.16 0-.182 0-.182-.105zm2.165-.287c0-.044 0-.066-.033-.066-.011 0-.017 0-.05.028a.4.4 0 0 1-.044.038.47.47 0 0 0-.26-.066c-.352 0-.435.188-.435.309q.001.117.094.193c.094.077.187.094.342.121.121.022.32.055.32.22 0 .094-.067.21-.304.21s-.32-.154-.363-.32c-.011-.033-.011-.044-.045-.044-.044 0-.044.017-.044.067v.303c0 .038 0 .06.033.06.022 0 .072-.05.122-.104.104.104.237.104.297.104.32 0 .441-.17.441-.341a.29.29 0 0 0-.11-.226.5.5 0 0 0-.292-.122c-.193-.038-.353-.066-.353-.198 0-.077.066-.171.298-.171.286 0 .297.198.303.27 0 .028.033.028.039.028.044 0 .044-.017.044-.067zm.678.061h.38v-.088h-.38v-.452h-.088c0 .22-.1.463-.337.468v.072h.226v.662c0 .275.21.33.348.33.165 0 .275-.137.275-.33v-.138h-.083v.132c0 .17-.077.26-.176.26-.165 0-.165-.205-.165-.249zm1.699.309c0-.127 0-.22-.116-.314a.54.54 0 0 0-.364-.122c-.231 0-.397.089-.397.237 0 .083.055.122.122.122.066 0 .115-.05.115-.116a.11.11 0 0 0-.088-.11c.088-.061.232-.061.243-.061.137 0 .292.088.292.298v.071a1.5 1.5 0 0 0-.48.083c-.22.077-.286.215-.286.325 0 .21.253.27.43.27a.41.41 0 0 0 .363-.204c.006.1.072.193.188.193.005 0 .242 0 .242-.231v-.138h-.082v.132c0 .028 0 .144-.094.144-.088 0-.088-.116-.088-.144zm-.193.314c0 .237-.21.303-.32.303-.127 0-.242-.083-.242-.204 0-.138.115-.325.562-.342zm.993-.623h.38v-.088h-.38v-.452h-.088c0 .22-.1.463-.336.468v.072h.226v.662c0 .275.209.33.347.33.165 0 .275-.137.275-.33v-.138h-.082v.132c0 .17-.077.26-.177.26-.165 0-.165-.205-.165-.249zm1.683.408c.055 0 .071 0 .071-.05 0-.22-.121-.485-.49-.485a.56.56 0 0 0-.568.557c0 .314.275.562.6.562.331 0 .458-.264.458-.32 0-.005-.005-.032-.044-.032-.033 0-.038.016-.044.038a.375.375 0 0 1-.353.237.37.37 0 0 1-.297-.143c-.094-.116-.094-.265-.094-.364Zm-.761-.06c.027-.348.248-.403.342-.403.303 0 .314.342.32.402zm0 0"/></svg>